<?xml version="1.0" encoding="UTF-8" standalone="no"?>
<!-- Created with Inkscape (http://www.inkscape.org/) -->

<svg
   width="400px"
   height="400px"
   viewBox="0 0 400 400"
   version="1.1"
   id="SVGRoot"
   sodipodi:docname="logo.svg"
   inkscape:version="1.1.1 (3bf5ae0d25, 2021-09-20)"
   xmlns:inkscape="http://www.inkscape.org/namespaces/inkscape"
   xmlns:sodipodi="http://sodipodi.sourceforge.net/DTD/sodipodi-0.dtd"
   xmlns="http://www.w3.org/2000/svg"
   xmlns:svg="http://www.w3.org/2000/svg">
  <defs
     id="defs824">
    <rect
       x="146.00793"
       y="724.68157"
       width="646.98927"
       height="174.1379"
       id="rect7350" />
    <rect
       x="719.32348"
       y="850.59666"
       width="76.352771"
       height="53.580892"
       id="rect3010" />
    <rect
       x="124.57557"
       y="626.89644"
       width="547.86462"
       height="206.28643"
       id="rect2894" />
    <rect
       x="199.58882"
       y="381.76385"
       width="873.36854"
       height="700.57017"
       id="rect1684" />
  </defs>
  <g
     inkscape:label="Layer 1"
     inkscape:groupmode="layer"
     id="layer1">
    <g
       aria-label="הדגה"
       transform="translate(-360.21904,-222.65735)"
       id="text1682"
       style="font-size:400px;line-height:1.25;font-family:'Berlin Sans FB Demi';-inkscape-font-specification:'Berlin Sans FB Demi';letter-spacing:0px;word-spacing:0px;white-space:pre;shape-inside:url(#rect1684)">
      <text
         xml:space="preserve"
         transform="translate(219.68166,283.97873)"
         id="text2892"
         style="font-style:normal;font-variant:normal;font-weight:normal;font-stretch:normal;font-size:40px;line-height:1.25;font-family:'Berlin Sans FB Demi';-inkscape-font-specification:'Berlin Sans FB Demi';letter-spacing:0px;word-spacing:0px;white-space:pre;shape-inside:url(#rect2894);fill:#000000;fill-opacity:1;stroke:none" />
      <text
         xml:space="preserve"
         transform="translate(219.68166,283.97873)"
         id="text3008"
         style="font-style:normal;font-variant:normal;font-weight:normal;font-stretch:normal;font-size:40px;line-height:1.25;font-family:'Berlin Sans FB Demi';-inkscape-font-specification:'Berlin Sans FB Demi';letter-spacing:0px;word-spacing:0px;white-space:pre;shape-inside:url(#rect3010);fill:#000000;fill-opacity:1;stroke:none" />
      <g
         aria-label="הגדה"
         transform="matrix(5.0444364,0,0,5.0444364,-368.95216,-3353.0868)"
         id="text7348"
         style="font-size:40px;font-family:Calibri;-inkscape-font-specification:'Calibri, Normal';shape-inside:url(#rect7350)">
        <path
           d="m 219.46484,759.19336 q 0,0.35156 -0.39062,0.48828 -0.3711,0.11719 -1.23047,0.11719 -0.89844,0 -1.28906,-0.13672 -0.39063,-0.13672 -0.39063,-0.46875 v -10.85938 q 0,-2.22656 -0.3125,-3.41796 -0.3125,-1.19141 -1.03515,-1.85547 -0.72266,-0.6836 -1.99219,-0.97657 -1.25,-0.29296 -3.33985,-0.29296 h -6.58203 q -0.33203,0 -0.46875,-0.3125 -0.11718,-0.33204 -0.11718,-1.03516 0,-0.72266 0.13671,-1.05469 0.13672,-0.33203 0.46875,-0.33203 h 6.81641 q 2.77344,0 4.62891,0.46875 1.85547,0.46875 2.96875,1.46484 1.11328,0.9961 1.62109,2.65625 0.50781,1.66016 0.50781,4.4336 z m -13.59375,0 q 0,0.33203 -0.39062,0.46875 -0.3711,0.13672 -1.26953,0.13672 -0.89844,0 -1.26953,-0.13672 -0.3711,-0.13672 -0.3711,-0.46875 v -10.99609 q 0,-0.33204 0.3711,-0.46875 0.37109,-0.15625 1.26953,-0.15625 0.89843,0 1.26953,0.15625 0.39062,0.13671 0.39062,0.46875 z"
           id="path8300" />
        <path
           d="m 198.11719,758.82227 q 0.0781,0.42968 -0.0586,0.625 -0.11718,0.17578 -0.44922,0.2539 -0.3125,0.0977 -1.09375,0.0977 -0.68359,0 -1.01562,-0.0586 -0.3125,-0.0391 -0.46875,-0.17578 -0.15625,-0.15625 -0.21484,-0.46875 l -0.70313,-4.49218 -7.26562,5 q -0.56641,0.41015 -0.89844,0.41015 -0.33203,0 -0.48828,-0.41015 -0.13672,-0.42969 -0.13672,-1.26954 0,-0.97656 0.15625,-1.30859 0.15625,-0.33203 0.66406,-0.66406 l 7.46094,-4.92188 -0.9375,-5.8789 q -0.29297,-1.75782 -0.625,-2.48047 -0.3125,-0.72266 -0.87891,-1.01563 -0.5664,-0.29297 -1.66015,-0.29297 h -2.08985 q -0.29297,0 -0.42969,-0.3125 -0.13671,-0.33203 -0.13671,-1.05468 0,-0.70313 0.13671,-1.01563 0.13672,-0.33203 0.42969,-0.33203 h 2.46094 q 1.95312,0 3.125,0.58594 1.19141,0.5664 1.875,1.85547 0.70312,1.26953 1.05469,3.55468 z"
           id="path8302" />
        <path
           d="m 184.34766,740.42383 q 0,0.70312 -0.13672,1.03515 -0.11719,0.33204 -0.42969,0.33204 h -2.51953 q -0.6836,3.32031 -0.6836,5.9375 v 11.46484 q 0,0.33203 -0.39062,0.46875 -0.37109,0.13672 -1.26953,0.13672 -0.87891,0 -1.26953,-0.13672 -0.3711,-0.13672 -0.3711,-0.46875 v -11.38672 q 0,-2.53906 0.74219,-6.01562 h -9.94141 q -0.29296,0 -0.42968,-0.33204 -0.13672,-0.33203 -0.13672,-1.03515 0,-0.70313 0.13672,-1.03516 0.13672,-0.33203 0.42968,-0.33203 h 15.70313 q 0.3125,0 0.42969,0.33203 0.13672,0.33203 0.13672,1.03516 z"
           id="path8304" />
        <path
           d="m 165.89062,759.19336 q 0,0.35156 -0.39062,0.48828 -0.37109,0.11719 -1.23047,0.11719 -0.89844,0 -1.28906,-0.13672 -0.39063,-0.13672 -0.39063,-0.46875 v -10.85938 q 0,-2.22656 -0.3125,-3.41796 -0.3125,-1.19141 -1.03515,-1.85547 -0.72266,-0.6836 -1.99219,-0.97657 -1.25,-0.29296 -3.33984,-0.29296 h -6.58204 q -0.33203,0 -0.46875,-0.3125 -0.11718,-0.33204 -0.11718,-1.03516 0,-0.72266 0.13672,-1.05469 0.13671,-0.33203 0.46875,-0.33203 h 6.8164 q 2.77344,0 4.62891,0.46875 1.85547,0.46875 2.96875,1.46484 1.11328,0.9961 1.62109,2.65625 0.50781,1.66016 0.50781,4.4336 z m -13.59375,0 q 0,0.33203 -0.39062,0.46875 -0.37109,0.13672 -1.26953,0.13672 -0.89844,0 -1.26953,-0.13672 -0.3711,-0.13672 -0.3711,-0.46875 v -10.99609 q 0,-0.33204 0.3711,-0.46875 0.37109,-0.15625 1.26953,-0.15625 0.89844,0 1.26953,0.15625 0.39062,0.13671 0.39062,0.46875 z"
           id="path8306" />
      </g>
    </g>
  </g>
</svg>
